<?xml version="1.0" encoding="UTF-8"?>
<svg xmlns="http://www.w3.org/2000/svg" viewBox="0 0 5000 3500">
  <defs>
    <style>
      .cls-1 {
        fill: #e2baa6;
      }

      .cls-2 {
        fill: #e6e6e6;
      }

      .cls-2, .cls-3, .cls-4 {
        mix-blend-mode: multiply;
      }

      .cls-5 {
        fill: #85a2af;
      }

      .cls-6, .cls-7 {
        fill: #1a1a1a;
      }

      .cls-6, .cls-8 {
        mix-blend-mode: screen;
      }

      .cls-9 {
        fill: #5bb6c4;
      }

      .cls-10 {
        fill: #c5e4ef;
      }

      .cls-11 {
        fill: #60989c;
      }

      .cls-12 {
        fill: #588d91;
      }

      .cls-13 {
        fill: #cea28b;
      }

      .cls-14 {
        fill: #534741;
      }

      .cls-15 {
        fill: #84bca5;
      }

      .cls-16, .cls-8 {
        fill: #4d4d4d;
      }

      .cls-3, .cls-17 {
        fill: #3b3b3b;
      }

      .cls-18 {
        fill: #7ca6a0;
      }

      .cls-19 {
        fill: #e5c129;
      }

      .cls-20 {
        fill: #c69c6d;
      }

      .cls-21 {
        fill: #02423f;
      }

      .cls-22 {
        fill: #8bccbd;
      }

      .cls-23 {
        fill: none;
      }

      .cls-24 {
        fill: #bdccd4;
      }

      .cls-25 {
        fill: #d4eee9;
      }

      .cls-26 {
        fill: #e0ada6;
      }

      .cls-27 {
        fill: #126671;
      }

      .cls-28 {
        fill: #e4b69d;
      }

      .cls-29 {
        fill: #5795a7;
      }

      .cls-30, .cls-4 {
        fill: #f2f2f2;
      }

      .cls-31 {
        fill: #028b8a;
      }

      .cls-32 {
        fill: #cfe7ef;
      }

      .cls-33 {
        fill: #efc7b0;
      }

      .cls-34 {
        isolation: isolate;
      }

      .cls-35 {
        fill: #79bec3;
      }

      .cls-36 {
        fill: #b89165;
      }

      .cls-37 {
        fill: #a9d3a3;
      }

      .cls-38 {
        fill: #fbb68d;
      }

      .cls-39 {
        fill: #d2a93a;
      }

      .cls-40 {
        fill: #333;
      }

      .cls-41 {
        fill: #ff7bac;
      }

      .cls-42 {
        fill: #edb37a;
      }

      .cls-43 {
        fill: #7fa1ad;
      }

      .cls-44 {
        fill: #e4f9f0;
      }

      .cls-45 {
        fill: #633c8c;
      }

      .cls-46 {
        fill: #b3b3b3;
      }

      .cls-47 {
        fill: #afd9c9;
      }

      .cls-48 {
        fill: #9cd5c9;
      }

      .cls-49 {
        fill: gray;
      }

      .cls-50 {
        fill: #1e566c;
      }

      .cls-51 {
        fill: #027776;
      }

      .cls-52 {
        fill: #252d46;
      }

      .cls-53 {
        fill: #05314c;
      }

      .cls-54 {
        fill: #c3eabe;
      }

      .cls-55 {
        fill: #053747;
      }

      .cls-56 {
        fill: #dbbf57;
      }

      .cls-57 {
        fill: #1d8192;
      }

      .cls-58 {
        fill: #8faebc;
      }
    </style>
  </defs>
  <g class="cls-34">
    <g id="Layer_1">
      <rect class="cls-23" width="5000" height="3500"/>
      <g>
        <path class="cls-54" d="M3457.55,1706.18c32.74,24.89,71.06,49.02,111.86,43.9-12.32-18.69-28.74-34.65-47.77-46.43,34.88.57,56.22,41.01,89.82,50.4,13.71,3.83,28.37,2.1,42.23-1.12,38.65-8.99,76.33-29.46,115.63-23.95.59-19.42-10.25-38.76-27.12-48.39,14.94,2.61,28.69,11.4,37.33,23.86,2.77,3.99,5.22,8.52,9.44,10.93,4.06,2.32,9.01,2.22,13.69,2.07,40.45-1.36,80.48-11.88,120.94-5.72,3.89-17.26,1.04-35.95-7.84-51.26,12.06-.75,21.25,10.55,26.65,21.36,5.4,10.81,10.1,23.25,20.78,28.91,6.22,3.29,13.51,3.69,20.54,4.02,33.2,1.54,66.41,3.08,99.61,4.62,9.09.42,20.28-.32,24.25-8.51,2.3-4.74,1.17-10.36-.06-15.48-6.96-28.85-18.05-59.83-43.8-74.59-30.29-17.37-68.26-5.76-103.06-8.55,28.9-10.5,60.04-14.8,90.71-12.53-38.3-59.57-94.62-107.38-159.62-135.51-35.69,16.25-75.22,24.01-114.41,22.46,31.4-5.46,62.05-15.26,90.8-29.03-72.43-34.14-147.86-68.99-227.93-69.04-51.32-.03-102.82,14.36-153.45,5.99-7.65,33.14-56.95,48.65-54.84,82.59-2.12-24.41,8.06-49.59,26.57-65.66-40.58,6.51-78.7,27.46-105.94,58.24-16.18,18.28-28.75,40.38-32.63,64.49-5.13,31.83,4.32,67.57-13.27,94.59-2.22,3.41-4.95,7.42-3.39,11.17,1.36,3.28,5.3,4.48,8.76,5.29,26.46,6.22,51.55,3.5,76.97,15.15,25.1,11.5,46.67,29.22,68.55,45.73Z"/>
        <path class="cls-37" d="M3303.36,1639.22c15.38-7.38,31.04-14.17,46.89-20.48,15.9-6.19,32.01-11.84,48.28-16.97,16.31-5.01,32.76-9.56,49.35-13.56,16.61-3.89,33.33-7.33,50.15-10.21,67.3-11.38,136.05-13.96,204.03-7.91l3.19.27,3.18.33,6.36.66,6.36.66c2.12.22,4.23.52,6.35.78,4.23.54,8.47,1.04,12.69,1.62l12.66,1.87,3.16.47,3.15.53,6.31,1.07,6.31,1.07c2.1.34,4.19.79,6.29,1.18l12.56,2.43,12.51,2.69c4.18.85,8.31,1.92,12.46,2.89,4.15.99,8.3,1.95,12.42,3.07l12.37,3.26,12.3,3.53,3.07.88,3.06.95,6.11,1.91,6.11,1.91c2.04.64,4.05,1.35,6.07,2.02,4.04,1.38,8.09,2.7,12.11,4.12l12.03,4.37c63.95,23.81,124.58,56.6,179.27,97.41l-.08.11c-54.73-40.74-115.38-73.44-179.33-97.16l-12.02-4.36c-4.02-1.42-8.08-2.73-12.11-4.11-2.02-.67-4.03-1.38-6.07-2.02l-6.11-1.9-6.11-1.9-3.05-.94-3.07-.88-12.3-3.52-12.37-3.25c-4.11-1.12-8.27-2.09-12.41-3.07-4.15-.97-8.28-2.04-12.46-2.89l-12.5-2.69-12.56-2.43c-2.1-.39-4.18-.83-6.28-1.18l-6.3-1.07-6.3-1.07-3.15-.53-3.16-.47-12.65-1.87c-4.22-.57-8.46-1.07-12.69-1.62-2.12-.26-4.23-.55-6.35-.78l-6.36-.66-6.36-.66-3.18-.33-3.19-.27c-67.93-6.05-136.65-3.47-203.91,7.91-67.25,11.35-133.01,31.7-194.69,60.87l-.06-.12Z"/>
        <path class="cls-37" d="M3714.86,1576.33c3.34-.09,6.71.58,9.8,1.87,3.11,1.28,5.95,3.13,8.5,5.29,5.1,4.35,9.09,9.9,12,15.91,5.83,12.07,8.13,25.42,13.89,37.42,2.86,6,6.51,11.59,10.69,16.75,4.19,5.16,8.87,9.91,13.83,14.33,9.95,8.85,20.96,16.4,31.95,23.9l-.07.11c-11.08-7.37-22.12-14.89-32.14-23.71-5-4.41-9.73-9.14-13.93-14.33-4.2-5.18-7.88-10.81-10.75-16.84-5.79-12.08-8.1-25.43-13.89-37.42-2.89-5.96-6.85-11.45-11.89-15.75-2.52-2.14-5.33-3.95-8.36-5.25-3.04-1.29-6.31-2.06-9.64-2.13v-.13Z"/>
        <path class="cls-37" d="M3847.01,1599.17c3.18,2.99,6.21,6.14,9.02,9.49,2.81,3.35,5.37,6.92,7.43,10.79,1.04,1.93,1.91,3.95,2.65,6.01.76,2.05,1.34,4.17,1.86,6.29,1.01,4.26,1.62,8.59,2.16,12.92,1.09,8.63,1.87,17.41,5.13,25.51.8,2.02,1.7,4,2.8,5.88,1.06,1.9,2.31,3.68,3.71,5.34,1.37,1.69,3.02,3.12,4.74,4.44,1.75,1.3,3.7,2.27,5.72,3.07l-.04.12c-2.04-.77-4.03-1.73-5.81-3.01-1.76-1.29-3.43-2.74-4.83-4.43-1.43-1.66-2.7-3.45-3.78-5.36-1.12-1.88-2.04-3.88-2.86-5.9-.83-2.03-1.49-4.12-2.08-6.22-.55-2.12-1.04-4.26-1.38-6.41-.74-4.31-1.21-8.65-1.75-12.97-.54-4.32-1.15-8.64-2.15-12.87-.51-2.11-1.09-4.21-1.84-6.24-.73-2.04-1.59-4.04-2.62-5.95-2.04-3.83-4.59-7.38-7.38-10.71-2.8-3.33-5.82-6.47-8.75-9.7l.09-.09Z"/>
        <path class="cls-37" d="M3969.18,1639.86c1.6-.58,3.22-1.14,4.85-1.66,1.65-.43,3.32-.83,4.98-1.24l5.05-.92,5.09-.62c6.81-.63,13.7-.48,20.48.43,6.78.92,13.46,2.57,19.85,5.03,6.39,2.44,12.5,5.61,18.1,9.53l-.07.11c-5.68-3.77-11.78-6.9-18.17-9.26-6.39-2.35-13.02-4.03-19.77-4.94-6.75-.91-13.59-1.06-20.37-.43l-5.07.62-5.02.91c-1.65.4-3.3.81-4.96,1.19-1.63.49-3.27.94-4.92,1.37l-.04-.12Z"/>
        <path class="cls-37" d="M3959.53,1641.09c2.85,2.29,5.13,5.26,6.83,8.49,1.74,3.22,2.97,6.68,4,10.17,2.05,7,3.27,14.19,5.41,21.12,1.08,3.46,2.37,6.86,4.13,10.02,1.74,3.17,3.97,6.05,6.56,8.58,5.2,5.02,11.87,8.53,19,9.89l-.02.13c-7.2-1.21-13.95-4.71-19.26-9.73-2.63-2.53-4.94-5.43-6.69-8.64-1.78-3.2-3.09-6.63-4.17-10.11-2.16-6.97-3.37-14.16-5.42-21.12-1.03-3.47-2.25-6.9-3.97-10.08-1.69-3.2-3.9-6.09-6.5-8.61l.09-.1Z"/>
        <path class="cls-37" d="M3862.15,1598.94c2.24-.18,4.48-.39,6.71-.63,2.23-.26,4.45-.56,6.67-.92,4.43-.75,8.81-1.76,13.11-3.05,8.63-2.53,16.78-6.42,24.79-10.47,4.01-2.04,8-4.11,12.03-6.12,4.04-1.99,8.13-3.88,12.31-5.56,4.2-1.63,8.49-3.04,12.89-4.05,4.41-.94,8.92-1.41,13.42-1.39v.13c-4.5.04-8.97.59-13.36,1.55-4.37,1.04-8.63,2.47-12.81,4.13-4.16,1.7-8.22,3.63-12.26,5.61-4.02,2.01-8.02,4.08-12.03,6.12-8.02,4.06-16.2,7.96-24.87,10.5-4.32,1.3-8.72,2.31-13.17,3.06-4.45.75-8.95,1.2-13.45,1.22v-.13Z"/>
        <path class="cls-37" d="M3721.11,1570.38c5.2-2.72,10.21-5.75,15.02-9.08,4.82-3.32,9.4-7,13.88-10.77,8.98-7.54,17.56-15.55,26.78-22.84,4.61-3.64,9.41-7.04,14.41-10.13,5.01-3.07,10.28-5.71,15.71-7.96,10.85-4.51,22.38-7.39,34.07-8.46v.13c-11.65,1.23-23.12,4.13-33.91,8.7-5.4,2.28-10.62,4.94-15.62,7.99-4.98,3.08-9.77,6.46-14.37,10.1-9.2,7.27-17.78,15.28-26.77,22.83-4.5,3.77-9.08,7.46-13.92,10.79-4.82,3.35-9.88,6.4-15.23,8.82l-.06-.12Z"/>
        <path class="cls-37" d="M3575.21,1569.89c6.94-2.5,13.47-6.02,19.44-10.32,5.97-4.31,11.37-9.37,16.32-14.82,9.91-10.93,18.06-23.29,25.98-35.72,7.93-12.43,15.99-24.87,25.85-35.91,4.92-5.51,10.28-10.65,16.21-15.06,5.92-4.42,12.45-8.04,19.42-10.52l.04.12c-6.93,2.53-13.39,6.22-19.28,10.64-5.89,4.42-11.21,9.57-16.09,15.09-9.75,11.07-17.83,23.47-25.75,35.9-7.92,12.43-16.09,24.82-26.03,35.78-4.97,5.47-10.39,10.55-16.39,14.88-5.99,4.33-12.6,7.88-19.67,10.07l-.04-.13Z"/>
        <path class="cls-45" d="M3415.41,1594.57c4.18-1.79,8.1-4.08,11.73-6.79,3.59-2.75,6.8-5.97,9.72-9.43,5.77-6.99,10.13-15.06,13.51-23.47,1.71-4.2,3.1-8.53,4.37-12.88,1.24-4.36,2.24-8.8,3.22-13.23,1.91-8.88,3.51-17.84,5.52-26.72,2.01-8.87,4.44-17.7,8.04-26.09,3.53-8.41,8.45-16.24,14.46-23.1,12-13.72,28.28-23.74,46.06-27.81l.04.17c-17.68,4.26-33.84,14.28-45.71,27.98-5.95,6.85-10.77,14.65-14.3,23-3.58,8.34-6,17.13-8,25.98-2,8.86-3.6,17.82-5.52,26.72-.98,4.44-1.98,8.89-3.23,13.27-1.27,4.37-2.67,8.72-4.39,12.94-3.4,8.45-7.79,16.57-13.61,23.63-2.94,3.49-6.18,6.75-9.85,9.48-3.68,2.71-7.73,4.9-12,6.51l-.06-.16Z"/>
        <path class="cls-37" d="M3577.29,1570.46c7.23.54,14.32,3.03,20.39,7.03,3.1,1.9,5.9,4.25,8.61,6.66,1.29,1.27,2.65,2.49,3.85,3.85.61.67,1.24,1.32,1.84,2l1.75,2.08c.6.68,1.15,1.4,1.7,2.12l1.65,2.16c1.03,1.49,2.12,2.94,3.09,4.48l1.48,2.28c.48.77.93,1.55,1.4,2.33.95,1.54,1.79,3.15,2.68,4.73,3.41,6.39,6.44,12.97,9.52,19.52,3.09,6.54,6.2,13.08,9.84,19.32,1.78,3.14,3.77,6.16,5.83,9.12,1.09,1.44,2.11,2.93,3.29,4.3.58.69,1.13,1.41,1.73,2.08l1.82,2c4.91,5.3,10.65,9.78,16.74,13.65,6.11,3.86,12.57,7.15,19.17,10.1l-.05.12c-6.63-2.9-13.15-6.11-19.28-9.97-6.13-3.85-11.91-8.33-16.88-13.63l-1.84-2.01c-.61-.68-1.16-1.39-1.75-2.09-1.19-1.37-2.23-2.86-3.32-4.31-2.09-2.96-4.08-6-5.87-9.15-3.65-6.27-6.77-12.81-9.86-19.36-3.08-6.55-6.11-13.12-9.51-19.5-.88-1.58-1.72-3.18-2.67-4.71-.47-.77-.92-1.56-1.4-2.32l-1.47-2.27c-.96-1.53-2.05-2.97-3.07-4.46l-1.65-2.15c-.54-.72-1.1-1.43-1.69-2.11l-1.74-2.07c-.6-.68-1.22-1.33-1.83-1.99-1.2-1.35-2.54-2.56-3.83-3.82-2.69-2.39-5.47-4.72-8.54-6.6-6.03-3.96-12.98-6.42-20.14-7.29v-.13Z"/>
        <path class="cls-37" d="M3416.37,1598.16c4.11-.13,8.22.19,12.28.85,4.05.71,8.02,1.82,11.9,3.19,3.86,1.41,7.61,3.12,11.25,5.02,3.63,1.93,7.13,4.09,10.53,6.39,3.38,2.34,6.64,4.83,9.81,7.44,3.14,2.64,6.18,5.4,9.16,8.23,5.92,5.69,11.54,11.66,17.13,17.66,5.59,6,11.18,11.99,17.03,17.73,2.94,2.86,5.94,5.64,9.02,8.33,3.11,2.66,6.31,5.21,9.62,7.62,3.34,2.37,6.77,4.61,10.32,6.64,3.58,1.99,7.25,3.8,11.05,5.34,3.81,1.49,7.72,2.73,11.72,3.63,4.01.84,8.08,1.34,12.17,1.48v.13c-4.11-.12-8.19-.6-12.22-1.42-4.01-.88-7.94-2.11-11.77-3.58-3.82-1.52-7.51-3.32-11.11-5.3-3.58-2.02-7.03-4.24-10.39-6.6-3.33-2.4-6.56-4.94-9.69-7.59-3.11-2.68-6.11-5.48-9.06-8.34-5.86-5.74-11.45-11.75-17.04-17.74-5.59-6-11.21-11.96-17.11-17.64-2.97-2.82-6-5.57-9.13-8.21-3.16-2.6-6.41-5.09-9.78-7.41-3.39-2.29-6.88-4.44-10.48-6.36-3.63-1.89-7.35-3.59-11.19-4.99-3.85-1.36-7.8-2.45-11.81-3.24-4.03-.72-8.11-1.06-12.2-1.12v-.13Z"/>
      </g>
      <g>
        <path class="cls-54" d="M3530.76,1400.91c25.46-32.3,50.26-70.19,45.86-111.08-18.9,11.99-35.15,28.13-47.26,46.95,1.18-34.87,41.99-55.49,51.97-88.92,4.07-13.64,2.6-28.32-.38-42.24-8.31-38.81-28.12-76.84-21.92-116.03-19.4-.93-38.94,9.57-48.86,26.27,2.87-14.89,11.91-28.49,24.51-36.91,4.04-2.7,8.61-5.07,11.09-9.25,2.39-4.02,2.38-8.97,2.3-13.65-.65-40.47-10.47-80.67-3.6-121.03-17.19-4.2-35.93-1.67-51.39,6.94-.53-12.07,10.92-21.06,21.82-26.28,10.91-5.21,23.42-9.69,29.27-20.27,3.4-6.16,3.93-13.44,4.38-20.46,2.12-33.17,4.25-66.35,6.37-99.52.58-9.09.04-20.28-8.09-24.39-4.7-2.38-10.34-1.35-15.48-.21-28.97,6.46-60.13,17-75.35,42.48-17.9,29.98-6.95,68.15-10.36,102.89-9.99-29.08-13.75-60.29-10.94-90.91-60.23,37.25-109.02,92.73-138.29,157.22,15.63,35.97,22.69,75.63,20.45,114.79-4.91-31.5-14.17-62.31-27.43-91.3-35.41,71.82-71.57,146.63-73.03,226.69-.93,51.31,12.56,103.05,3.3,153.53,33,8.23,47.64,57.79,81.62,56.28-24.45,1.7-49.44-8.93-65.18-27.71,5.8,40.69,26.08,79.17,56.38,106.95,18,16.5,39.87,29.45,63.91,33.76,31.73,5.69,67.64-3.13,94.35,14.92,3.37,2.28,7.33,5.08,11.11,3.58,3.3-1.3,4.57-5.22,5.45-8.66,6.68-26.35,4.41-51.48,16.5-76.69,11.94-24.9,30.03-46.15,46.92-67.74Z"/>
        <path class="cls-37" d="M3461.11,1553.91c-7.1-15.51-13.63-31.28-19.65-47.24-5.91-16.01-11.28-32.21-16.13-48.57-4.73-16.39-8.98-32.92-12.69-49.58-3.6-16.68-6.75-33.45-9.33-50.32-10.2-67.48-11.58-136.28-4.33-204.13l.32-3.18.39-3.18.77-6.35.77-6.35c.26-2.12.59-4.22.89-6.34.62-4.22,1.19-8.45,1.84-12.66l2.09-12.62.52-3.16.59-3.14,1.18-6.29,1.18-6.29c.38-2.1.86-4.18,1.29-6.27l2.65-12.52,2.91-12.46c.93-4.16,2.07-8.28,3.11-12.41,1.06-4.13,2.1-8.27,3.29-12.36l3.48-12.31,3.75-12.24.94-3.06,1-3.04,2.01-6.07,2.01-6.07c.67-2.02,1.42-4.02,2.13-6.03,1.45-4.01,2.84-8.04,4.34-12.04l4.58-11.95c24.93-63.52,58.77-123.57,100.54-177.54l.1.08c-41.7,54.01-75.45,114.08-100.29,177.6l-4.57,11.95c-1.49,4-2.88,8.03-4.32,12.04-.7,2.01-1.45,4.01-2.12,6.03l-2.01,6.07-2.01,6.07-1,3.04-.93,3.06-3.73,12.23-3.47,12.31c-1.19,4.09-2.23,8.23-3.29,12.36-1.04,4.13-2.18,8.24-3.11,12.4l-2.91,12.45-2.65,12.51c-.43,2.09-.91,4.17-1.29,6.26l-1.18,6.28-1.18,6.28-.59,3.14-.52,3.15-2.09,12.62c-.65,4.21-1.22,8.44-1.84,12.66-.29,2.11-.63,4.22-.89,6.33l-.77,6.35-.77,6.35-.39,3.17-.32,3.18c-7.24,67.82-5.86,136.57,4.33,204.01,10.17,67.44,29.36,133.55,57.45,195.73l-.12.05Z"/>
        <path class="cls-37" d="M3405.44,1141.37c-.04-3.34.69-6.7,2.04-9.77,1.33-3.08,3.23-5.9,5.44-8.41,4.44-5.02,10.06-8.92,16.12-11.72,12.17-5.62,25.56-7.69,37.66-13.23,6.04-2.75,11.71-6.31,16.94-10.4,5.23-4.1,10.06-8.69,14.57-13.58,9.02-9.79,16.76-20.67,24.46-31.52l.11.08c-7.56,10.95-15.28,21.86-24.27,31.72-4.5,4.92-9.31,9.57-14.58,13.68-5.25,4.11-10.95,7.69-17.03,10.46-12.18,5.58-25.57,7.65-37.66,13.23-6.01,2.78-11.57,6.64-15.96,11.61-2.18,2.48-4.04,5.26-5.4,8.27-1.34,3.01-2.17,6.27-2.3,9.6h-.13Z"/>
        <path class="cls-37" d="M3430.59,1009.64c3.04-3.12,6.24-6.11,9.65-8.85,3.4-2.75,7.02-5.25,10.92-7.24,1.95-1.01,3.98-1.85,6.05-2.55,2.07-.73,4.19-1.27,6.33-1.74,4.28-.93,8.62-1.47,12.96-1.93,8.65-.94,17.44-1.57,25.6-4.68,2.03-.77,4.03-1.63,5.92-2.69,1.92-1.02,3.72-2.24,5.4-3.61,1.71-1.34,3.17-2.96,4.52-4.66,1.33-1.72,2.34-3.66,3.17-5.67l.12.05c-.81,2.03-1.8,4-3.11,5.76-1.32,1.74-2.8,3.39-4.51,4.75-1.68,1.4-3.5,2.64-5.42,3.69-1.9,1.09-3.91,1.97-5.95,2.76-2.04.79-4.14,1.41-6.26,1.97-2.12.52-4.27.96-6.44,1.27-4.32.67-8.67,1.06-13,1.53-4.33.46-8.66,1-12.91,1.93-2.12.47-4.23,1.01-6.27,1.73-2.06.69-4.06,1.52-5.99,2.52-3.87,1.97-7.46,4.46-10.84,7.19-3.38,2.74-6.57,5.7-9.85,8.58l-.09-.1Z"/>
        <path class="cls-37" d="M3473.42,888.2c-.55-1.61-1.08-3.24-1.57-4.88-.4-1.66-.77-3.33-1.15-5l-.83-5.06-.53-5.1c-.51-6.82-.24-13.7.79-20.46,1.04-6.76,2.81-13.42,5.37-19.76,2.55-6.34,5.83-12.4,9.84-17.93l.11.08c-3.87,5.61-7.1,11.66-9.58,18-2.47,6.35-4.26,12.95-5.28,19.68-1.03,6.73-1.3,13.57-.79,20.36l.53,5.08.83,5.04c.38,1.66.75,3.32,1.1,4.98.46,1.64.88,3.29,1.28,4.95l-.13.04Z"/>
        <path class="cls-37" d="M3474.48,897.87c2.34-2.81,5.35-5.04,8.61-6.68,3.25-1.68,6.73-2.85,10.24-3.82,7.03-1.93,14.24-3.02,21.21-5.04,3.48-1.02,6.9-2.25,10.09-3.95,3.2-1.69,6.12-3.87,8.69-6.41,5.11-5.11,8.74-11.72,10.22-18.82l.13.03c-1.33,7.17-4.95,13.87-10.07,19.08-2.58,2.59-5.51,4.84-8.76,6.54-3.23,1.72-6.68,2.97-10.18,3.99-7.01,2.03-14.22,3.13-21.21,5.05-3.49.97-6.94,2.13-10.15,3.79-3.23,1.63-6.15,3.79-8.73,6.35l-.1-.09Z"/>
        <path class="cls-37" d="M3430.63,994.49c-.14-2.25-.31-4.48-.51-6.72-.22-2.23-.48-4.46-.81-6.69-.67-4.44-1.61-8.84-2.82-13.16-2.38-8.67-6.12-16.89-10.04-24.97-1.97-4.04-3.97-8.08-5.91-12.14-1.92-4.07-3.74-8.2-5.35-12.41-1.56-4.23-2.89-8.55-3.83-12.96-.87-4.43-1.26-8.94-1.15-13.45h.13c-.04,4.5.44,8.98,1.31,13.38.96,4.39,2.32,8.68,3.91,12.88,1.63,4.19,3.49,8.28,5.39,12.35,1.94,4.06,3.93,8.09,5.91,12.13,3.91,8.09,7.68,16.34,10.07,25.05,1.22,4.34,2.16,8.76,2.83,13.22.67,4.46,1.05,8.97.99,13.47h-.13Z"/>
        <path class="cls-37" d="M3399.6,1135.01c-2.62-5.25-5.57-10.31-8.82-15.18-3.24-4.88-6.83-9.52-10.52-14.07-7.38-9.11-15.24-17.83-22.37-27.18-3.56-4.67-6.87-9.53-9.87-14.59-2.99-5.06-5.53-10.38-7.69-15.85-4.32-10.93-6.99-22.5-7.86-34.21h.13c1.03,11.67,3.73,23.2,8.1,34.06,2.18,5.43,4.76,10.71,7.72,15.76,2.99,5.03,6.29,9.88,9.84,14.54,7.11,9.32,14.97,18.05,22.36,27.17,3.69,4.56,7.3,9.21,10.55,14.1,3.27,4.88,6.23,9.99,8.55,15.39l-.12.06Z"/>
        <path class="cls-37" d="M3396.55,1280.88c-2.38-6.98-5.78-13.57-9.98-19.61-4.2-6.05-9.17-11.53-14.53-16.58-10.75-10.1-22.97-18.47-35.26-26.6-12.29-8.14-24.59-16.43-35.46-26.47-5.42-5.01-10.47-10.46-14.78-16.47-4.31-6-7.83-12.59-10.18-19.6l.13-.04c2.41,6.97,5.99,13.5,10.3,19.47,4.32,5.97,9.38,11.38,14.8,16.35,10.9,9.94,23.15,18.24,35.44,26.38,12.29,8.14,24.53,16.52,35.32,26.65,5.38,5.06,10.37,10.57,14.59,16.65,4.23,6.06,7.66,12.74,9.72,19.84l-.13.04Z"/>
        <path class="cls-45" d="M3418.43,1441.09c-1.72-4.21-3.94-8.17-6.58-11.85-2.69-3.64-5.85-6.91-9.26-9.89-6.89-5.89-14.88-10.39-23.23-13.92-4.17-1.78-8.47-3.25-12.8-4.59-4.34-1.32-8.76-2.4-13.18-3.45-8.85-2.07-17.78-3.82-26.62-5.99-8.83-2.17-17.62-4.75-25.94-8.49-8.35-3.68-16.09-8.73-22.84-14.86-13.51-12.24-23.24-28.69-27-46.54l.17-.04c3.95,17.75,13.68,34.08,27.18,46.19,6.74,6.07,14.46,11.02,22.74,14.7,8.28,3.72,17.02,6.29,25.84,8.46,8.83,2.16,17.75,3.91,26.62,5.98,4.43,1.06,8.85,2.13,13.21,3.46,4.35,1.35,8.67,2.82,12.86,4.61,8.39,3.55,16.43,8.07,23.38,14.02,3.43,3,6.64,6.3,9.31,10.02,2.64,3.73,4.76,7.82,6.3,12.11l-.16.06Z"/>
        <path class="cls-37" d="M3397.16,1278.81c.67-7.22,3.28-14.27,7.39-20.26,1.96-3.07,4.35-5.82,6.81-8.49,1.3-1.27,2.53-2.6,3.91-3.78.68-.6,1.34-1.22,2.03-1.81l2.11-1.71c.7-.58,1.42-1.13,2.15-1.66l2.19-1.62c1.51-1,2.98-2.07,4.53-3.01l2.31-1.44c.78-.47,1.57-.91,2.35-1.36,1.56-.93,3.18-1.74,4.78-2.59,6.45-3.3,13.09-6.21,19.68-9.18,6.59-2.98,13.18-5.97,19.49-9.5,3.17-1.73,6.23-3.66,9.22-5.67,1.46-1.06,2.96-2.06,4.36-3.21.7-.56,1.43-1.1,2.11-1.69l2.03-1.78c5.38-4.82,9.97-10.47,13.94-16.5,3.97-6.04,7.37-12.45,10.44-18.99l.12.06c-3.01,6.58-6.34,13.04-10.3,19.1-3.96,6.06-8.54,11.77-13.92,16.63l-2.04,1.8c-.69.59-1.41,1.14-2.12,1.71-1.4,1.16-2.9,2.18-4.36,3.25-3,2.04-6.07,3.97-9.25,5.71-6.33,3.54-12.93,6.54-19.53,9.52-6.6,2.97-13.23,5.88-19.66,9.17-1.59.85-3.21,1.66-4.76,2.58-.78.45-1.57.89-2.34,1.35l-2.3,1.43c-1.55.93-3,2-4.51,3l-2.18,1.61c-.73.53-1.45,1.07-2.14,1.65l-2.1,1.71c-.69.58-1.35,1.2-2.02,1.8-1.37,1.17-2.6,2.5-3.89,3.76-2.44,2.65-4.81,5.38-6.75,8.42-4.07,5.96-6.64,12.86-7.65,20.01h-.13Z"/>
        <path class="cls-37" d="M3422.03,1440.19c-.06-4.11.34-8.21,1.06-12.26.78-4.04,1.96-7.99,3.4-11.84,1.48-3.84,3.26-7.55,5.21-11.16,2-3.59,4.22-7.05,6.57-10.42,2.39-3.34,4.94-6.56,7.61-9.68,2.7-3.1,5.51-6.09,8.39-9.01,5.79-5.82,11.86-11.34,17.95-16.82,6.09-5.48,12.19-10.96,18.02-16.71,2.91-2.88,5.74-5.84,8.49-8.87,2.71-3.06,5.32-6.22,7.79-9.49,2.43-3.29,4.73-6.68,6.82-10.2,2.05-3.54,3.93-7.18,5.53-10.95,1.56-3.79,2.86-7.67,3.83-11.65.91-3.99,1.48-8.06,1.69-12.15h.13c-.19,4.11-.74,8.18-1.64,12.19-.95,3.99-2.24,7.9-3.79,11.71-1.58,3.79-3.45,7.45-5.49,11.01-2.08,3.54-4.37,6.95-6.78,10.27-2.45,3.29-5.05,6.47-7.76,9.56-2.73,3.06-5.58,6.02-8.49,8.91-5.85,5.76-11.95,11.25-18.04,16.73-6.09,5.48-12.16,11-17.94,16.8-2.87,2.92-5.68,5.9-8.37,8.99-2.66,3.11-5.2,6.32-7.58,9.65-2.35,3.35-4.56,6.8-6.54,10.37-1.95,3.59-3.71,7.29-5.19,11.1-1.43,3.83-2.58,7.75-3.44,11.75-.79,4.01-1.2,8.09-1.33,12.18h-.13Z"/>
      </g>
      <g>
        <path class="cls-35" d="M3680.78,1241.43c64.54-21.45,136.61-27.31,199.92-2.43,23.05,9.06,45.07,22.51,59.86,42.38,14.79,19.87,21.33,46.9,12.73,70.13-4.04,10.9-11.12,20.46-19.21,28.8-24.86,25.63-59.21,40.36-94.15,47.73-40.52,8.55-82.31,10.57-123.25,5.61-109.84-13.31-222.76,26.13-316.36,81.09-10.67,6.27-39.87,30.61-44.08,42.22,24.65-52.8,60.26-99.6,95.58-145.95,29.98-39.33,60.78-79.34,100.26-109.71,36.81-28.33,84.87-45.3,128.71-59.88Z"/>
        <path class="cls-27" d="M3420.24,1474.69c13.3-17.54,28.18-33.89,44.16-49.06,15.97-15.18,33.13-29.13,51.23-41.7,18.1-12.58,37.12-23.81,56.71-33.87,19.6-10.06,39.73-19.03,60.1-27.37,10.19-4.16,20.42-8.2,30.71-12.11,10.29-3.91,20.66-7.64,31.23-10.81,10.56-3.14,21.23-5.99,32.11-7.9,10.87-1.91,21.85-3.03,32.82-3.89,10.98-.83,21.95-1.47,32.92-2.21,10.98-.71,22-1.12,33.01-.96,22,.23,44.12,2.96,65.14,9.62l-.15.47c-10.51-3.18-21.28-5.48-32.17-6.86-10.89-1.39-21.86-2.06-32.84-2.14-10.98-.11-21.96.36-32.91,1.13-10.96.8-21.94,1.51-32.89,2.4-10.94.92-21.86,2.1-32.65,4.06-5.39.98-10.73,2.19-16.04,3.55-5.32,1.36-10.6,2.82-15.85,4.41-10.5,3.17-20.83,6.9-31.09,10.82-10.26,3.92-20.48,7.97-30.64,12.15-20.31,8.37-40.38,17.35-59.89,27.41-19.52,10.04-38.5,21.15-56.54,33.66-18.05,12.48-35.15,26.33-51.09,41.42-15.96,15.08-30.71,31.37-45.02,48.05l-.39-.31Z"/>
      </g>
      <g>
        <path class="cls-35" d="M3727.03,1205.92c16.85-9.14,33.46-19.17,49.73-30.14,55.07-37.12,125.47-108.47,122.09-193.13-1.67-41.77-29.22-72.19-61.28-76.57-32.05-4.38-66.92,13.78-95.3,41.4-28.38,27.62-51.15,64.04-71.83,101.22-33.38,60.01-55.42,124.53-93.39,181.25-7.6,11.35-16.04,23.89-16.53,37.74,55.7-12.26,112.33-32.39,166.5-61.78Z"/>
        <path class="cls-27" d="M3576.76,1274.79c13.38-9.45,27.08-18.37,40.62-27.54,13.53-9.18,26.92-18.57,39.96-28.42,13.03-9.85,25.74-20.15,37.93-31.01,12.23-10.82,23.93-22.24,34.99-34.25,22.14-24.02,41.84-50.24,59.28-77.88,17.37-27.69,32.32-56.87,45.08-86.99l.46.19c-12.2,30.38-27.08,59.7-44.27,87.6-17.21,27.88-37,54.2-59.14,78.38-11.07,12.09-22.79,23.59-35.05,34.48-12.27,10.87-25.04,21.17-38.13,31.02-13.1,9.85-26.53,19.23-40.1,28.38-13.57,9.16-27.3,18.08-41.36,26.46l-.27-.42Z"/>
      </g>
      <g>
        <circle class="cls-50" cx="2266.57" cy="2036.7" r="101.7" transform="translate(-776.3 2199.24) rotate(-45)"/>
        <path class="cls-50" d="M2570.45,2417.63c49.15-35.87,100.43-37.06,139.62-17.89v-308.81h-887v855h887v-333.44c-16.12,7.88-34.28,12.32-53.5,12.32-94,0-162.86-106.02-90.07-203.28,1.11-1.48,2.44-2.8,3.94-3.89Z"/>
      </g>
      <g>
        <rect class="cls-29" x="2710.07" y="2077.92" width="887" height="868"/>
        <ellipse class="cls-29" cx="2650.17" cy="2506.41" rx="124.9" ry="127.51"/>
      </g>
      <g>
        <circle class="cls-17" cx="3168.13" cy="2142.89" r="114.07"/>
        <path class="cls-17" d="M3597.07,1210.92h-887v344.62c33.96-18.49,79.63-18.19,123.06,14.89,63.88,83.88,5.47,176.19-74.5,176.19-17.59,0-34.13-4.46-48.56-12.32v344.62h887v-868Z"/>
      </g>
      <g>
        <path class="cls-35" d="M2525.27,1033.17l-883.65-76.97s0,0,0,0l-75.32,864.73,356.11,31.02c-18.68-36.2-16.14-84.55,22.72-127.27,89.1-56.32,175.96,9.88,169.02,89.54-1.73,19.86-9.06,37.89-20.3,52.66l356.11,31.02,75.32-864.73Z"/>
        <circle class="cls-35" cx="2520.84" cy="1468.42" r="100.05" transform="translate(-299.99 2212.6) rotate(-45)"/>
      </g>
      <g>
        <path class="cls-36" d="M1437.38,1965.96c11.57-3.84,40.1-14.66,40.1-14.66l104.04-140.32s.55-60.53,8.05-49.46c7.5,11.08,8.2,31.41,8.2,31.41,0,0,8.29,28.01,24,39.13,15.72,11.12-23.39.38-23.39.38,0,0-76.29,152.2-95.08,156.8-18.79,4.6-47.69,16.3-47.69,16.3l-18.24-39.59Z"/>
        <path class="cls-43" d="M1447.53,1962.41c3.25,4.88,10.23,54.65,10.23,54.65,0,0-118.12,49.08-123.69,50.5-5.57,1.42-33.98-63.15-33.98-63.15,0,0,145.49-44.92,147.44-41.99Z"/>
        <path class="cls-49" d="M1300.09,2310.15l117.74,256.06-106.51,227.35,24.27,30.28s151.82-158.14,153.54-232.33c1.73-74.18-77.13-325.93-77.13-325.93l-111.92,44.56Z"/>
        <path class="cls-46" d="M1421.28,2265.59c34.07,57.54,87.12,232.65,101.49,284.31,35.9,129.02,63.26,263.36,63.26,263.36l-40.56.55-113.37-280.69s-74.02-141.27-132.01-222.97l121.19-44.56Z"/>
        <polygon class="cls-20" points="1307.44 1932.49 1332.85 2015.25 1284.29 2044.02 1244.16 1937.86 1307.44 1932.49"/>
        <path class="cls-20" d="M1649.01,1751.35c-9.11-6.35-35.32,10.77-53.61,29.95-18.28,19.18,2.37,56.54,2.37,56.54l-67.44,139.62-63.58,11.68,7.14,63.26c46.81-10.07,97.78-27.4,101.82-36.34,10.08-22.38,49.14-166.37,49.14-166.37,0,0,33.26-91.98,24.15-98.34Z"/>
        <path class="cls-52" d="M1307.44,1854.86c46.56-23.58,23.97-59.23,12.35-63.26-17.12-5.93-54.63-17.83-90.86,8.91-36.23,26.74-61.24,80.22-49.17,114.73,12.08,34.5,73.13,47.74,73.41,48.54.28.8,35.35-4.55-.95-52.26-19.49-25.62,16.96-50.62,16.96-50.62l38.27-6.04Z"/>
        <ellipse class="cls-20" cx="1247.15" cy="1900.01" rx="15.42" ry="22.99" transform="translate(-944.32 1297.61) rotate(-41.35)"/>
        <path class="cls-58" d="M1271.27,2014.05c-17.91,6.23,10.35,296.1,28.82,296.1s127.92-32.19,127.92-32.19c0,0-18.23-105.09-20.53-170.65-2.11-60.24-5.18-29.04-31.82-82.43-19.15-38.36-86.49-17.06-104.39-10.83Z"/>
        <path class="cls-20" d="M1302.61,1836.91s70.19,88.86,30.59,103.76c-39.6,14.9-75.17,26.88-84.96,4.74-9.79-22.14-8.16-9.83-21.76-17.37-13.66-7.57-27.15-31.94-9.74-34.23,10.25-1.35-3.29-38.78,2.26-47.6s50.14-34.39,83.61-9.31Z"/>
        <path class="cls-5" d="M1320.24,2016.05c-24.25,4.46-9.02,60.27,4.43,68.26,8.07,4.8,78.95-16.79,149.23-31.92l-7.14-63.26-146.51,26.92Z"/>
        <path class="cls-52" d="M1322.37,1832.43s13.35,16.33-33.86,25.41c-47.22,9.09-71.37,15.97-71.37,15.97,0,0-34.5-40.81,16.68-52.31,51.18-11.5,87.83-9.56,88.56,10.93Z"/>
        <path class="cls-40" d="M1586.33,2817.27s102.65,17.5,103.51,27.85-113,9.49-116.45,12.94c-3.45,3.45-28.47,0-28.47,0,0,0-6.94-40.61,6.87-40.79,13.81-.19,34.53,0,34.53,0Z"/>
        <path class="cls-40" d="M1311.32,2793.57s-43.58,29.46-33.23,41.37c10.35,11.91,46.7,60.21,73.38,60.21s34.45-5.18,25.82-9.78c-8.63-4.6-19.84-6.33-27.6-10.93s-14.09-50.61-14.09-50.61l-23.58-29.04"/>
      </g>
      <g>
        <path class="cls-38" d="M4478.54,1666.91c0,12.22-4.44,184.42,0,201.09,4.44,16.66,78.88,25.55,78.88,25.55l-31.11-213.31-47.77-13.33Z"/>
        <polygon class="cls-19" points="4613.17 1874.94 4554.7 1874.94 4557.42 1893.55 4689.62 1916.88 4682.96 1883.55 4613.17 1874.94"/>
        <path class="cls-38" d="M4627.13,1700.8s-69.99,79.99-49.99,114.99c20,35,35,20,35,20l-11.8,57.49,89.29,17.5v-92.49s64.99-49.99,64.99-84.99-106.76-59.14-127.49-32.5Z"/>
        <path class="cls-17" d="M4644.63,1627.47s0,8.33,30,23.33c30,15,111.65,31.66,104.99,86.66s-36.28,96.66-67.3,106.65c-31.02,10-67.68,0-67.68,0,0,0-16.66-76.66,0-99.99,16.66-23.33,22.24-31.66,19.45-36.66-2.79-5-41.12-3.33-47.78-25-6.67-21.66-5-61.66,28.33-54.99Z"/>
        <ellipse class="cls-38" cx="4649.08" cy="1767.14" rx="33.42" ry="21.1" transform="translate(604.92 4662.22) rotate(-56.41)"/>
        <polygon class="cls-38" points="4521.87 3008.14 4529.64 3037.96 4533.53 3052.86 4571.3 3048.97 4565.19 3005.64 4521.87 3008.14"/>
        <path class="cls-17" d="M4432.99,3068.97c3.89,0,97.79-26.67,97.79-26.67h39.59s16.49,42.22-2.95,49.44c-19.44,7.22-157.2,14.44-168.31,3.89-11.11-10.55,33.88-26.66,33.88-26.66Z"/>
        <polygon class="cls-38" points="4797.91 3026.47 4805.69 3056.28 4809.58 3071.19 4847.35 3067.3 4841.24 3023.97 4797.91 3026.47"/>
        <path class="cls-17" d="M4709.03,3087.3c3.89,0,97.79-26.67,97.79-26.67h39.59s16.49,42.22-2.95,49.44c-19.44,7.22-157.2,14.44-168.31,3.89s33.88-26.66,33.88-26.66Z"/>
        <path class="cls-55" d="M4740.73,2284.57s-44.44,277.79-27.77,316.68c16.66,38.88,139.98,413.29,139.98,413.29l-71.86,8.89s-138.11-296.4-163.67-377.06c-25.55-80.66-30.49-113.41-30.49-113.41l-46.1-242.8,199.91-5.57Z"/>
        <path class="cls-50" d="M4520.48,2290.73s-109.43,137.48-56.38,459.95l49.47,257.47h59.98l-16.13-279.97s-27.46-124.99,16.13-179.98c43.59-54.99,136.08-101.15,161.07-263.63l-214.14,6.16Z"/>
        <path class="cls-56" d="M4487.98,1874.94c6.67.83,235.81,20,244.14,54.99,8.33,35,14.16,354.13,14.16,354.13,0,0-225.81,10-225.81,6.67s15-292.47,15-292.47c0,0-115.82-24.16-121.65-42.5l74.16-80.82Z"/>
        <path class="cls-50" d="M4319.67,1606.92c11.11,5.55,276.63,107.77,276.63,107.77l12.22-25.23-239.97-166.97-48.88,84.43Z"/>
        <path class="cls-38" d="M4422.16,1654.97l-8.33,193.59,69.45,31.52-69.45,75.69s-57.49-16.66-56.66-80.82c.83-64.16,20-215.81,20-215.81,0,0-2.5-89.99,21.66-98.32,24.16-8.33,35,5.83,35.83,21.66.83,15.83-5,44.25-5,44.25,0,0,27.5-5.93,22.5,5.74-5,11.67-30,22.5-30,22.5Z"/>
        <path class="cls-9" d="M4311.4,1502.56h35.44v105.76h-35.44c-1.66,0-3.01-1.35-3.01-3.01v-99.75c0-1.66,1.35-3.01,3.01-3.01Z" transform="translate(1357.51 -1955.42) rotate(30)"/>
        <path class="cls-38" d="M4488.87,1606.2s44.54,4.3,48.69,20.53c4.15,16.23-11.07,16.34-23.57,18-12.5,1.67-25.12-38.54-25.12-38.54Z"/>
        <rect class="cls-9" x="4592.4" y="1684.55" width="12.34" height="33.05" transform="translate(1181.5 -1815.19) rotate(25.52)"/>
      </g>
      <g>
        <path class="cls-39" d="M506.01,1960.77l129.38,205.28v-125.51s48.81-9.3,55.78-6.97c6.97,2.32,46.48,264.96,0,281.23-46.48,16.27-151.59-114.02-151.59-114.02l-33.57-240Z"/>
        <path class="cls-42" d="M420.27,1907.29l9.67,66.11s15.12,33.06,47.15,22.73c32.02-10.33,18.59-43.42,18.59-43.42l-10.92-45.42h-64.49Z"/>
        <path class="cls-42" d="M483.28,1796.76s65.08,103.3,52.68,126.02c-12.4,22.73-112.59,0-115.69-15.49-3.1-15.49-34.09-74.37-26.86-92.97,7.23-18.59,84.41-26.47,89.87-17.56Z"/>
        <path class="cls-17" d="M419.24,1927.95s-53.71-52.68-52.68-94c1.03-41.32-1.03-57.85,52.68-65.08,53.71-7.23,83.67-34.09,83.67-34.09,0,0,7.23,42.25-10.33,58.31-17.56,16.06-60.52,23.3-57.12,38.27s22,61.46-16.22,96.58Z"/>
        <ellipse class="cls-42" cx="431.38" cy="1862.74" rx="13.31" ry="19.37" transform="translate(-1105.06 724.66) rotate(-40.43)"/>
        <path class="cls-17" d="M446.81,1873.18c2.9,2.08,16.33,33.59,28.72,26.36,12.4-7.23,26.12-57.18,40.52-44.79,4.12,3.54,13.36,20.47,16.74,28.7,8.47,20.57,11.58,50.4-6.13,62.57-24.79,17.04-95.77-27.25-96.7-30.15-.92-2.91,16.84-42.69,16.84-42.69Z"/>
        <g>
          <path class="cls-42" d="M517.35,3210.16l-6.34-23.43-46.88-2.09,2.05,36.59s0,.01-.01.02l47.08-9.92c-.44-.11,4.09-1.17,4.09-1.17Z"/>
          <path class="cls-7" d="M648.16,3242.34c-24.64-5.53-121.16-29.75-130.14-32.01l-51.85,10.93c-.22.43-7.28,14.46-6.8,30.05.48,15.82,188.79,7.91,188.79,7.91,0,0,25.85-11.08,0-16.88Z"/>
        </g>
        <g>
          <path class="cls-42" d="M279.57,3183.59h-53.63l-11.23,35.54s11.91,0,11.91,0l40.3-1.81c-.42-.19,12.66-33.73,12.66-33.73Z"/>
          <path class="cls-7" d="M389.57,3271.32c-23.31-9.7-114.2-50.22-122.66-54l-52.96,1.81c-.29.38-9.67,12.99-11.89,28.42-2.26,15.67,184.59,40.39,184.59,40.39,0,0,27.37-6.45,2.91-16.63Z"/>
        </g>
        <path class="cls-51" d="M539.58,2395.37l-18.08,791s-59.18,2.32-62.13,0c-2.95-2.32-92.83-791-92.83-791h173.04Z"/>
        <path class="cls-31" d="M506.01,2395.37s-82.38,356.38-85.74,377.3-131.19,413.71-131.19,413.71h-74.37s62.75-399.76,72.05-446.25c9.3-46.48,37.96-344.76,37.96-344.76h181.29Z"/>
        <path class="cls-56" d="M510.66,1972.36s57.33,74.37,52.68,161.14-23.76,261.86-23.76,261.86h-214.86s12.37-393.56,41.82-410.61c29.45-17.04,117.77-37.19,144.12-12.4Z"/>
        <path class="cls-42" d="M337.97,2418.85s28.58,63.81,27.55,78.27c-1.03,14.46,68.92-6.2,64.41-10.33-4.5-4.13-56.77-75.55-56.77-75.55l-35.2,7.61Z"/>
        <path class="cls-39" d="M392.32,1973.87s-169.87,134.84-162.12,193.72c7.75,58.88,94.52,254.11,94.52,254.11l57.33-12.4-44.93-238.62s120.5-57.33,107.97-119.31-5.3-97.7-52.76-77.51Z"/>
        <path class="cls-42" d="M683.29,2033.36s-29.22-69.36-40.69-72.59-44.45,4.17-49.27-1.99c-4.82-6.17-2.95-21.85-11.2-23.33-8.26-1.48,2.12,27.23,4.45,42.73,2.32,15.49,39.64,57.43,47.65,59.27,8.01,1.84,49.06-4.08,49.06-4.08Z"/>
        <polygon class="cls-57" points="558.69 1878.25 558.69 1931.24 726.51 1961.37 713.47 1810.07 558.69 1878.25"/>
        <rect class="cls-21" x="719.73" y="1805.75" width="35.64" height="155.52" transform="translate(-159.81 70.68) rotate(-4.95)"/>
        <rect class="cls-21" x="543.07" y="1878.14" width="16.01" height="53.2"/>
        <path class="cls-21" d="M586.58,1936.25s27.89,99.65,42.35,97.07c14.46-2.58,32.02-16.53,32.02-16.53l-37.19-73.86-37.19-6.68Z"/>
        <path class="cls-42" d="M631.14,1959.95s-39.14,19.38-23.26,22.87c15.88,3.49,30.6-4.28,31.76-11.43,1.16-7.16-6.64-12.39-8.51-11.43Z"/>
        <path class="cls-42" d="M640.36,1974.79s-39.14,19.38-23.26,22.87c15.88,3.49,30.6-4.28,31.76-11.43s-6.64-12.39-8.51-11.43Z"/>
        <path class="cls-42" d="M648.98,1988.55s-39.14,19.38-23.26,22.87c15.88,3.49,30.6-4.28,31.76-11.43,1.16-7.16-6.64-12.39-8.51-11.43Z"/>
      </g>
      <g>
        <path class="cls-17" d="M2291.62,2418.38c3.46,4.89,4.68,11.11,8.25,15.92,9.11,12.26,29.84,11.21,38.12,24.03,9.73,15.07-5.45,35.82.82,52.63,3.3,8.85,11.77,14.46,18.66,20.93,6.89,6.47,12.81,16.3,9.03,24.96-4.15,9.5-17.2,11.53-23.41,19.83-6.41,8.56-3.56,20.82,1.1,30.44,4.66,9.63,11.02,19.11,10.95,29.81-.11,16.37-16.39,29.26-32.73,30.37-16.34,1.1-32-6.85-45.07-16.71-6.35-4.79-12.54-10.19-20.13-12.57-15.58-4.89-31.87,4.16-45.19,13.6-13.32,9.44-27.73,20.17-44.02,18.99-18.31-1.33-33.2-20.54-29.9-38.6,1.61-8.83,6.55-18.85,1-25.91-3.39-4.32-9.61-5.53-13.17-9.71-5.04-5.92-2.72-15.13,1.42-21.71,4.15-6.58,9.94-12.42,11.74-19.98,2.64-11.1-4.04-22.04-10.22-31.63-6.59-10.23-13.13-21.1-14.21-33.21-1.08-12.12,5.01-25.76,16.64-29.34,6.83-2.11,14.85-.67,20.73-4.75,6.55-4.55,7.49-13.85,12.25-20.26,5.8-7.81,16.25-10.2,25.8-12.05,23.52-4.55,83.33-27.85,101.54-5.08Z"/>
        <path class="cls-16" d="M2170.08,3240.34s-43.91-10.54-60.6-11.42c-16.69-.88-57.08,22.83-46.54,36.88,10.54,14.05,57.96,30.74,115.04,19.32,57.08-11.42-7.9-44.79-7.9-44.79Z"/>
        <polygon class="cls-53" points="2275.81 3261.8 2296.53 3271.08 2307.84 3250.8 2275.81 3261.8"/>
        <path class="cls-16" d="M2372.31,3228.9s1.63-.25,4.33-.6c13.15-1.69,51.78-5.61,52.5,6.77.88,14.93-25.47,51.81-57.08,50.06-31.61-1.76-75.52-14.05-75.52-14.05l17.31-22.46,58.47-19.72Z"/>
        <path class="cls-17" d="M2213.11,3048.02s-94.84-21.95-155.44-43.91c-60.6-21.95-137.88-38.64-137.88,11.42s48.3,126.46,100.11,151.93c51.81,25.47,160.71,72.89,160.71,72.89,0,0-17.56,37.76-2.63,44.79,14.93,7.03,346.01-83.43,382.89-212.52,0,0,32.49-85.18-67.62-76.4l-210.77,70.26-69.38-18.44Z"/>
        <path class="cls-8" d="M2246.64,3189.28c-73.51-63.47-92.8-65.12-175.33-116-11.28-6.95-22.59-13.86-33.91-20.74-7.89-4.8-29.1-13.34-32.02-21.18,8.02-1.03,22.54,10.85,29.95,15.13,10.64,6.12,21.21,12.36,31.71,18.71,20.67,12.49,41.08,25.41,61.21,38.75,40.6,26.89,80.07,55.49,118.27,85.68,21.12,16.7-20.27-17.93.11-.33Z"/>
        <path class="cls-18" d="M2460.76,2906.63l-83.43,18.44-21.95-78.16-18.44,189.69h-209.89l2.63-194.08-14.93,123.82-78.16-25.47,5.27-53.57,50.94-157.2c.53-1.05,1.18-2.13,1.94-3.21l8.38-8.88c22.81-19.82,70.47-39.73,70.47-39.73,63.23-14.05,61.13-2.63,100.99-4.39,39.86-1.76,97.48,50.94,97.48,50.94l88.7,181.79Z"/>
        <path class="cls-30" d="M2173.14,2693.1c-3.11,7.84-.33,16.72,3.12,24.41,6.64,14.77,15.8,28.4,26.98,40.12,10.12,10.61,21.95,19.78,29.99,32.04,11.51,17.56,13.93,39.37,16.03,60.26-7.27-22.68,2.42-47.3,15.04-67.49,12.63-20.19,28.56-38.87,35.66-61.6,3.55-11.34,2.47-32.53-5.63-41.22-5.95-6.39-14.21-5.66-22.83-7.03-20.25-3.2-40.5-.32-61.02.78-12.76.68-32.24,6.86-37.34,19.73Z"/>
        <path class="cls-13" d="M2199.95,2657.95c-.64,15.98.68,33.16,10.55,45.74,7.57,9.65,19.84,15.41,32.1,15.08,12.26-.34,24.2-6.76,31.23-16.81,9.43-13.48,9.54-31.32,7.36-47.63s-6.28-32.72-3.97-49.01c-21.77,3.74-43.58,5.65-65.58,7.32-10.98.83-11.43,2.35-10.78,13.15.64,10.72-.48,21.45-.91,32.15Z"/>
        <path class="cls-28" d="M2306.51,2556.52c-2.78,19.56-10.16,38.86-23.46,53.48-13.29,14.62-32.93,24.05-52.64,22.54-24.17-1.85-45.21-20.09-54.5-42.48-9.54-23-5.55-47.26-4.97-71.33.03-1.28.12-2.58.26-3.88,2.09-18.68,15.64-38.4,31.39-47.72,13.36-7.91,29.67-8.99,45.17-8.02,13.95.89,28.63,3.65,39.06,12.96,8.2,7.33,12.79,17.9,15.82,28.47,2.74,9.56,4.4,19.42,4.97,29.34.51,8.88.15,17.81-1.1,26.63Z"/>
        <path class="cls-4" d="M2307.62,2529.89c-7.73,2.24-16.3,2.15-23.33-1.66-7.69-4.17-12.86-13.4-10.74-21.89-9.53,7.61-19.49,15.44-31.37,18.26-11.88,2.81-26.24-.93-31.88-11.76,2.09,4.01-33.21,3.19-39.09,2,2.09-18.68,15.64-38.4,31.39-47.72,13.36-7.91,29.67-8.99,45.17-8.02,13.95.89,28.63,3.65,39.06,12.96,8.2,7.33,12.79,17.9,15.82,28.47,2.74,9.56,4.4,19.42,4.97,29.34Z"/>
        <path class="cls-28" d="M2441.08,2910.98s5.63,30.78.36,42.19c-5.27,11.42-108.9,119.43-108.9,119.43l-31.61-36.01,76.4-111.53,63.75-14.09Z"/>
        <path class="cls-28" d="M2036.59,2940.88s69.38,122.95,83.43,125.58c14.05,2.63,36.88-21.95,36.88-21.95l-41.68-82.07-78.63-21.56Z"/>
        <polygon class="cls-50" points="2068.21 2866.23 2114.75 3090.17 2374.69 3090.17 2423.87 2862.72 2068.21 2866.23"/>
        <polygon class="cls-50" points="2068.21 2853.94 2068.21 2866.23 2423.87 2862.72 2423.87 2853.94 2068.21 2853.94"/>
        <path class="cls-17" d="M2317.77,2505.07c-4.56,6.96-15.59,12.29-22.9,7.38-10.22-6.86-.45-23.69-10.13-31.11-11.23-1.98-20.69,6.73-28.42,14.02-7.73,7.3-19.97,14.45-29.7,9.23-7.39-3.97-8.44-12.72-8.7-20.23-5.25,6.99-12.97,12.88-22.28,15.08-9.31,2.19-20.21.14-26.47-6.2-7.3-7.38-6.45-15.9-1.81-23.45,4.98-8.09,14.35-15.05,22.74-18.21,23.15-8.72,49.24-11.5,74.15-7.9,17.19,2.48,34.42,8.33,46,19.58,4.57,4.44,8.03,9.84,10.03,15.57,3.07,8.78,2.67,18.31-2.51,26.24Z"/>
        <path class="cls-3" d="M2319.53,2496.53c-.65,1.94-1.49,3.81-2.51,5.62-4.56,8.06-15.59,14.24-22.9,8.55-10.22-7.95-.45-27.44-10.13-36.03-11.23-2.3-20.69,7.79-28.42,16.24-7.73,8.46-19.97,16.73-29.7,10.69-7.39-4.59-8.44-14.74-8.7-23.44-5.25,8.09-12.97,14.92-22.28,17.47-9.31,2.54-20.21.17-26.47-7.18-.68-.79-1.28-1.58-1.81-2.39,4.98-9.38,14.35-17.44,22.74-21.09,23.15-10.1,49.24-13.32,74.15-9.15,17.19,2.87,34.42,9.65,46,22.68,4.57,5.14,8.03,11.4,10.03,18.03Z"/>
        <path class="cls-6" d="M2134.78,2828.2c3.55-27.03-1.53-55.13-14.31-79.22-2.98-5.59-6.86-11.68-12.18-15.34-2.99-2.06-10.23-2.61-12.29-5.01-.52-.61-.94-1.18-1.26-1.73l8.38-8.88c3.07-.35,6.34-.12,8.79.68,19.79,6.42,31.72,27.69,33.54,48.42,1.82,20.73-4.46,41.21-10.66,61.08Z"/>
        <path class="cls-6" d="M2375.83,2732.57c-5.52,11.32-13.19,23.05-16.97,32.58-5.6,14.13-21.09,43.68-18.32,58.94-6.14-33.85,4.72-75.32,29.56-100.98l5.73,9.47Z"/>
        <path class="cls-6" d="M2222.27,2423.9c3.29-.56,7.65-.25,8.63,2.94.96,3.14-2.36,5.83-5.25,7.39-12.43,6.72-25.62,12.43-39.19,16.42-5.51-15.28,25.23-24.95,35.82-26.75Z"/>
      </g>
      <g>
        <polygon class="cls-26" points="2710.07 978.96 2520.84 1087.21 2500 1079.74 2515.73 1114.25 2515.73 1156.19 2556.32 1113.46 2750.42 1019.09 2710.07 978.96"/>
        <polygon class="cls-11" points="2790.76 929.9 2710.07 978.96 2750.42 1019.09 2877.79 945.73 2790.76 929.9"/>
        <g>
          <path class="cls-17" d="M2958.23,1012.51c-44.12-24.15-191-85.18-183.16-16.15,5.82,51.25,135.95,183.56,135.95,183.56l-67.88,30h153.33l-79.12-122.28s69.63,87.6,98.11,104.94c27,16.44,88.12,1.71,94.41-26.83l-151.64-153.25Z"/>
          <path class="cls-35" d="M3110.41,1160.93c63.35-148.75-207.3-395.6-299.08-395.6s-20.57,164.57-20.57,164.57l183.56,91.78s-6.07-3.69-16.08-9.17l151.64,153.25c.35-1.57-.11-3.31.54-4.82Z"/>
        </g>
        <path class="cls-26" d="M2476.79,1030.38l196.87-122.63,24.38,50.11-188.15,105.56s-45.11,84.06-67.66,63.89c-22.55-20.18,15.82-75.96,15.82-80.7s-24.28-20.44-24.28-20.44c4.37-10.81,45.22,2.84,43.02,4.21Z"/>
        <path class="cls-12" d="M2868.3,894.89l-166.15,71.41-28.48-58.55s116.89-75.77,141.36-83.34c22.15-6.86,53.27,42.69,53.27,70.48Z"/>
        <path class="cls-26" d="M2620.9,784.32s94.74,89.48,133.46,50.43c36.7-37.01,11.97-95.55,11.97-95.55,0,0-91.38-99.67-145.44-59.32-54.05,40.35,0,104.44,0,104.44Z"/>
        <path class="cls-17" d="M2778.38,755.01s-5.03-5.13-69.11-.97c-64.09,4.16-51.43,85.72-112.39,60.96-48.53-19.71-59.34-89.24,0-131.97,59.34-42.73,197.05-39.96,181.5,71.97Z"/>
        <ellipse class="cls-26" cx="2712.85" cy="739.34" rx="13.05" ry="24.92" transform="translate(831.86 2829.33) rotate(-63.26)"/>
        <path class="cls-26" d="M2763.21,748.43l46.94,33.74c9.46,6.8,9.97,20.7,1.03,28.17l-16.49,13.78c-4.93,4.12-11.91,4.7-17.45,1.46l-22.48-13.16,8.45-63.98Z"/>
      </g>
      <path class="cls-44" d="M1230.51,485.64c0-57.85-46.9-104.75-104.75-104.75-6.63,0-13.11.62-19.39,1.8-18.99-26.65-50.15-44.02-85.36-44.02-10.7,0-21.02,1.61-30.74,4.59-9.72-2.98-20.04-4.59-30.74-4.59-22.41,0-43.16,7.04-60.2,19.02-17.03-11.98-37.79-19.02-60.2-19.02-45.13,0-83.6,28.55-98.33,68.57-7.93-1.92-16.22-2.95-24.74-2.95-57.85,0-104.75,46.9-104.75,104.75,0,0,65.35,79.77,163.57,68.27,98.22-11.5,330.42,1.12,401.09-19.07,70.67-20.19,54.55-72.6,54.55-72.6Z"/>
      <g>
        <polygon class="cls-47" points="4075.2 237.11 4277.57 170.36 4277.57 237.11 4075.2 237.11"/>
        <polygon class="cls-47" points="4277.57 297.78 4277.57 244.18 4075.2 237.11 4277.57 297.78"/>
        <path class="cls-15" d="M4277.57,237.11v7.07s-203.37-7.08-201.01-7.08,201.01,0,201.01,0Z"/>
      </g>
      <g>
        <g>
          <path class="cls-24" d="M3867.42,2572.85c-2.48,3.47,29.24,35.68,32.21,92.17,2.97,56.49-60.95,280.46-60.95,280.46l-141.72-7.43s15.86-316.14,53.52-357.27l116.94-7.93Z"/>
          <path class="cls-29" d="M3868.8,2558.37c-.41,4.71-.87,7.69-1.39,8.53-16.68,27.23-122.33,21.98-122.33,21.98,0,0-8.99-39.63-18.47-85.94-.47-2.31-.95-4.63-1.42-6.97-1.85-9.14-3.71-18.47-5.51-27.75-.65-3.35-1.28-6.69-1.92-10.02-7.38-39.01-13.27-75.52-12.89-90.99,1-40.14,58.47-107.53,92.67-114.47,34.19-6.93,58.45,18.35,58.45,18.35,0,0,6.46,6.92,11.41,33.18,4.47,23.67,5.13,211.09,1.39,254.09Z"/>
          <path class="cls-28" d="M3786.22,2266.47c7.36,13.04,23.4,22.25,37.56,17.37,10.08-3.47,17-13.17,19.95-23.41,2.95-10.24,2.55-21.11,2.13-31.76-1.14-28.72-2.28-57.43-3.42-86.15-.25-6.38-59.6,17.92-64.07,36.63-5.11,21.41-2.78,68.5,7.85,87.32Z"/>
          <path class="cls-50" d="M3784.1,2245.19c-3.8.5-7.76,1.06-10.95,3.19-6.66,4.43-7.58,13.66-7.94,21.65-.36,7.99-1.54,17.26-8.39,21.39,4.26.83,8.9-2.07,10.03-6.26,1.79,2.98,3.57,5.95,5.36,8.93,2.07,1.13,4.99.25,6.1-1.83,2.01,3.1,7.74,2.16,8.66-1.42,2.41,1.08,3.7,4.17,2.77,6.65,9.1-6.61,21.59-3.91,32.75-2.52,6.48.81,22.9,1.97,27.44-2.73,2.87-2.96,5.9-8.35,6.87-12.36,2.61-10.83,2.46-39.76-13-42.49-8.25-1.46-20.52,2.63-28.88,3.73-10.27,1.36-20.54,2.72-30.8,4.07Z"/>
          <path class="cls-28" d="M3867.33,2127.95c-.98,26.44-2.31,60.95-25.54,73.59-24.91,13.55-63.07,19.5-86.85,18.51-2.23-.09-5.88-3.33-9.9-9.02-1.7-2.4-3.46-5.23-5.21-8.45-1.11-2.04-2.21-4.22-3.28-6.55-.85-1.85-1.7-3.8-2.51-5.82-2.22-5.51-4.24-11.64-5.86-18.23-9.12-1.25-15.11,4.24-14.87-4.95.43-16.29,7.36-52.11,9.62-68.56,2.25-16.39,11.13-29.89,26.52-37.02,14.74-6.83,31.57-7.21,47.81-6.77,16.66.45,34.34,1.99,47.72,11.93,18.18,13.52,23.2,38.7,22.36,61.34Z"/>
          <path class="cls-2" d="M3838.39,2384.66c-11.46,14.69-25.95,26.68-39.05,39.92-23.89,24.16-43.85,53.11-72.93,70.68-.4.24-.81.48-1.22.71-1.85-9.14-3.71-18.47-5.51-27.75-.65-3.35-1.28-6.69-1.92-10.02,35.88-37.98,66.9-80.53,92.05-126.32,3.11-5.65,6.22-11.77,5.68-18.2-.77-9.15-9.44-4.17-17.08-3.6,25.59-15.37,55.53-5.64,58.15,23.13,1.68,18.55-6.72,36.76-18.18,51.44Z"/>
          <path class="cls-33" d="M3728.6,2415.73c-37.72-34.02-83.88-61.25-121.61-95.27-4.3-3.88-29.94-16.52-28.84-3.88,1.1,12.63,115.19,159.53,142.21,164.96,27.08,5.45,126.71-127.82,126.93-142.72.52-35.09-36-52.53-58.82-24.18-23.54,29.24-37.52,69.91-59.87,101.09Z"/>
          <g>
            <path class="cls-41" d="M3750.39,3244.85c-.94.05-12.63,11.66-14.53,12.89-7.76,4.99-44.37,14.68-20.52,25.22,23.85,10.54,82.99-36.89,82.99-36.89v32.72h7.76s9.15-81.28.41-87.4c-12.97,17.44-28.66,52.12-56.11,53.46Z"/>
            <path class="cls-41" d="M3842.12,3222.9c-.86.38-7.55,15.44-8.89,17.27-5.43,7.46-36.06,29.73-10.01,30.93,26.04,1.2,64.04-64.4,64.04-64.4l11.83,30.51,7.24-2.81s-25.99-69.97-36.36-72.51c-5.79,20.95-2.74,49.83-27.85,61Z"/>
            <path class="cls-1" d="M3805.38,2943.43l-56.07-3.09,27.56,268.69s-35.15,47.07-34.29,47.02c27.45-1.34,50.94-47.23,63.92-64.67-.13-.09-.27-.17-.41-.23,0,0,5.05-226.01-.71-247.73Z"/>
          </g>
          <path class="cls-33" d="M3876.49,3175.95c3.36-.13-70.06-208.83-80.04-232.68l-80.13-4.2,139.8,245.78-14.07,39.03c23.17,1.36,34.32-47.93,34.45-47.93Z"/>
          <polygon class="cls-50" points="3859.89 2558.38 3750.63 2580.56 3750.63 2619.93 3871.24 2584.05 3867.65 2566.69 3867.65 2558.38 3859.89 2558.38"/>
          <polygon class="cls-50" points="3735.85 2578.9 3733.18 2622.52 3743.1 2619.93 3743.1 2578.9 3735.85 2578.9"/>
          <polygon class="cls-14" points="3538.23 2155.19 3579.27 2300.49 3635.28 2273.32 3596.46 2137.44 3538.23 2155.19"/>
          <polygon class="cls-10" points="3543.87 2157.21 3583.74 2294.61 3632.97 2270.73 3596 2141.32 3543.87 2157.21"/>
          <path class="cls-33" d="M3606.99,2320.46s-12.98-74.34-16.64-77.09c-6.66-4.99-10.54,28.84-10.54,28.84,0,0-3.37,26.95-14.42-32.17l-15.53-42.7s-33.28,38.82,2.22,85.41c35.49,46.59,34.94,49.36,34.94,49.36l19.97-11.65Z"/>
          <path class="cls-30" d="M3757.45,2232.43l-14.47,34.21c-1.7-2.4-3.46-5.23-5.21-8.45-1.11-2.04-2.21-4.22-3.28-6.55-.85-1.85-1.7-3.8-2.51-5.82l25.47-13.39Z"/>
        </g>
        <path class="cls-17" d="M3731.97,2017.75s-47.88,55.73-19.26,86.29c28.61,30.56,94.67-6.02,111.98,37.44,17.31,43.46-3.7,127.45,27.48,177.14,31.18,49.69,147.73,99.92,142.34-3.06-5.39-102.97-73.41-71.67-73.41-118.22s-4.21-136.44-68.93-168.8c-64.72-32.36-94.72-8.99-120.19-10.79Z"/>
      </g>
      <g>
        <path class="cls-48" d="M925.85,951.68c-1.22-2.84-38.76,77.68-38.76,77.68h81.51l238.31-105.85-281.05,28.17Z"/>
        <polygon class="cls-25" points="897.49 885.51 911.19 887.19 1206.9 923.51 938.2 980.5 897.49 885.51"/>
        <path class="cls-32" d="M957.2,1004.93c0,10.86,48.85,84.14,48.85,84.14l200.85-165.56-249.7,81.42Z"/>
        <polygon class="cls-22" points="887.09 1029.36 1196.5 925.32 938.2 980.5 925.85 951.68 887.09 1029.36"/>
      </g>
      <g>
        <polygon class="cls-22" points="887.09 1572.42 884.82 1566.86 884.97 1566.8 887.09 1572.42"/>
        <polygon class="cls-22" points="880.37 1555.59 876.06 1544.26 876.85 1543.98 880.84 1555.41 880.37 1555.59"/>
        <polygon class="cls-22" points="871.91 1532.88 867.88 1521.44 869.17 1521.01 872.96 1532.51 871.91 1532.88"/>
        <polygon class="cls-22" points="863.97 1509.97 860.17 1498.43 861.95 1497.87 865.5 1509.47 863.97 1509.97"/>
        <polygon class="cls-22" points="856.51 1486.87 852.97 1475.28 855.24 1474.63 858.53 1486.27 856.51 1486.87"/>
        <polygon class="cls-22" points="849.58 1463.64 846.33 1451.96 849.1 1451.24 852.1 1462.95 849.58 1463.64"/>
        <polygon class="cls-22" points="843.25 1440.22 840.37 1428.43 843.55 1427.71 846.25 1439.49 843.25 1440.22"/>
        <polygon class="cls-22" points="837.67 1416.59 835.18 1404.7 838.73 1404.02 841.04 1415.88 837.67 1416.59"/>
        <polygon class="cls-22" points="832.91 1392.76 830.91 1380.77 834.85 1380.19 836.66 1392.12 832.91 1392.76"/>
        <polygon class="cls-22" points="829.2 1368.72 827.85 1356.62 832.11 1356.23 833.32 1368.22 829.2 1368.72"/>
        <path class="cls-22" d="M826.89,1344.47c-.25-4.06-.42-8.13-.5-12.2l4.54-.07c.04,4,.16,8.01.36,12.02l-4.4.25Z"/>
        <path class="cls-22" d="M826.44,1320.04c.12-4.08.36-8.16.73-12.24l4.77.46c-.4,3.96-.68,7.95-.84,11.94l-4.66-.16Z"/>
        <path class="cls-22" d="M828.74,1295.6c.69-4.05,1.55-8.08,2.64-12.07l4.87,1.36c-1.08,3.79-1.95,7.66-2.66,11.56l-4.85-.85Z"/>
        <path class="cls-22" d="M835.42,1271.77c1.62-3.84,3.53-7.58,5.79-11.12l4.39,2.82c-2.1,3.25-3.91,6.72-5.45,10.31l-4.73-2.01Z"/>
        <path class="cls-22" d="M849.07,1250.73c2.98-3.02,6.33-5.69,9.95-7.92l2.81,4.58c-3.27,1.98-6.29,4.37-9.01,7.08l-3.75-3.73Z"/>
        <path class="cls-22" d="M870.54,1237.44c4.01-1.35,8.15-2.26,12.3-2.81l.71,5.48c-3.85.49-7.65,1.3-11.3,2.5l-1.72-5.17Z"/>
        <path class="cls-22" d="M895.26,1233.8c4.14-.05,8.31.11,12.47.61l-.7,5.64c-3.86-.49-7.78-.67-11.71-.65l-.06-5.61Z"/>
        <path class="cls-22" d="M920.1,1237.11c4.05,1.36,8,3.24,11.56,5.81l-3.39,4.67c-2.99-2.17-6.4-3.82-10-5.04l1.83-5.45Z"/>
        <path class="cls-22" d="M940.65,1252.53c2.33,3.76,3.87,7.95,4.73,12.19l-5.71,1.15c-.74-3.67-2.03-7.18-3.95-10.3l4.93-3.05Z"/>
        <path class="cls-22" d="M946.25,1277.5c-.21,4.23-.84,8.4-1.74,12.48l-5.73-1.28c.85-3.8,1.44-7.65,1.64-11.49l5.84.29Z"/>
        <path class="cls-22" d="M941.04,1301.95c-1.38,3.9-2.97,7.72-4.7,11.46l-5.37-2.5c1.67-3.59,3.19-7.23,4.51-10.94l5.56,1.97Z"/>
        <path class="cls-22" d="M930.71,1324.39c-2.01,3.58-4.14,7.09-6.38,10.53l-5-3.27c2.18-3.33,4.25-6.72,6.2-10.18l5.19,2.91Z"/>
        <path class="cls-22" d="M917.3,1345.01c-2.45,3.29-4.99,6.5-7.61,9.64l-4.59-3.83c2.55-3.06,5.01-6.19,7.38-9.39l4.82,3.58Z"/>
        <path class="cls-22" d="M901.55,1363.84c-2.8,2.99-5.67,5.9-8.63,8.73l-4.1-4.28c2.87-2.76,5.67-5.6,8.38-8.51l4.35,4.06Z"/>
        <path class="cls-22" d="M883.8,1380.81c-3.12,2.66-6.32,5.22-9.6,7.68l-3.53-4.7c3.18-2.39,6.28-4.89,9.3-7.47l3.83,4.49Z"/>
        <path class="cls-22" d="M864.11,1395.54c-3.44,2.24-6.97,4.36-10.58,6.33l-2.8-5.11c3.47-1.91,6.87-3.96,10.19-6.13l3.19,4.9Z"/>
        <path class="cls-22" d="M842.44,1407.35c-3.78,1.66-7.64,3.15-11.58,4.43l-1.79-5.49c3.74-1.22,7.42-2.65,11.03-4.25l2.34,5.3Z"/>
        <path class="cls-22" d="M818.81,1414.93c-4.08.81-8.23,1.34-12.41,1.56l-.32-5.67c3.89-.23,7.77-.76,11.61-1.52l1.12,5.64Z"/>
        <path class="cls-22" d="M793.86,1416.16c-4.17-.45-8.31-1.26-12.35-2.45l1.54-5.31c3.72,1.06,7.54,1.79,11.4,2.18l-.59,5.57Z"/>
        <path class="cls-22" d="M769.79,1409.1c-3.75-1.88-7.33-4.1-10.7-6.58l3.17-4.34c3.15,2.29,6.48,4.32,9.96,6.03l-2.43,4.88Z"/>
        <path class="cls-22" d="M749.62,1394.36c-2.95-2.94-5.68-6.07-8.22-9.33l4.11-3.22c2.44,3.09,5.05,6.04,7.84,8.79l-3.73,3.76Z"/>
        <path class="cls-22" d="M734.33,1374.87c-2.18-3.5-4.19-7.09-6.05-10.74l4.51-2.32c1.83,3.53,3.79,6.98,5.9,10.32l-4.36,2.73Z"/>
        <path class="cls-22" d="M723.11,1352.99c-1.6-3.75-3.12-7.53-4.55-11.35l4.53-1.71c1.43,3.73,2.96,7.43,4.56,11.1l-4.54,1.97Z"/>
        <path class="cls-22" d="M714.57,1330.07c-1.23-3.89-2.36-7.81-3.39-11.76l4.47-1.18c1.03,3.86,2.18,7.69,3.42,11.49l-4.51,1.45Z"/>
        <path class="cls-22" d="M708.46,1306.37c-.79-4.01-1.47-8.04-2.01-12.08l4.37-.61c.57,3.95,1.26,7.89,2.07,11.8l-4.43.9Z"/>
        <path class="cls-22" d="M705.19,1282.1c-.29-4.08-.44-8.16-.45-12.25l4.19-.03c.05,3.99.23,7.98.55,11.96l-4.29.32Z"/>
        <path class="cls-22" d="M705.13,1257.6c.27-4.08.69-8.14,1.25-12.19l3.89.51c-.5,3.96-.85,7.94-1.07,11.93l-4.07-.25Z"/>
        <path class="cls-22" d="M708.48,1233.34c.84-4,1.82-7.96,2.93-11.89l3.5.97c-1.04,3.86-1.95,7.75-2.73,11.67l-3.7-.75Z"/>
        <path class="cls-22" d="M715.15,1209.81c1.38-3.84,2.88-7.63,4.5-11.37l3.06,1.31c-1.55,3.69-2.98,7.43-4.28,11.21l-3.28-1.15Z"/>
        <path class="cls-22" d="M724.87,1187.4c1.85-3.63,3.82-7.19,5.88-10.7l2.62,1.52c-1.99,3.48-3.88,7.02-5.66,10.61l-2.84-1.43Z"/>
        <path class="cls-22" d="M737.25,1166.38c2.26-3.38,4.62-6.69,7.06-9.94l2.11,1.56c-2.36,3.25-4.63,6.57-6.8,9.94l-2.37-1.56Z"/>
        <path class="cls-22" d="M751.86,1146.89c2.59-3.12,5.26-6.18,8-9.17l1.64,1.48c-2.66,3.01-5.26,6.09-7.77,9.22l-1.87-1.53Z"/>
        <path class="cls-22" d="M768.27,1128.93c2.86-2.87,5.79-5.67,8.77-8.42l1.23,1.31c-2.91,2.78-5.77,5.62-8.56,8.51l-1.43-1.4Z"/>
        <path class="cls-22" d="M786.13,1112.46c3.08-2.62,6.22-5.19,9.39-7.7l.86,1.08c-3.12,2.55-6.2,5.16-9.22,7.82l-1.04-1.2Z"/>
        <path class="cls-22" d="M805.19,1097.42c3.27-2.39,6.57-4.72,9.92-6.99l.55.79c-3.3,2.32-6.55,4.7-9.77,7.14l-.7-.94Z"/>
        <path class="cls-22" d="M825.28,1083.83c3.43-2.14,6.9-4.22,10.4-6.23l.21.36c-3.45,2.09-6.87,4.24-10.24,6.46l-.37-.59Z"/>
        <path class="cls-22" d="M846.33,1071.78c1.78-.91,3.57-1.81,5.38-2.66-1.79.89-3.56,1.83-5.31,2.78l-.06-.12Z"/>
      </g>
      <path class="cls-44" d="M4567.05,500.44c-8.58,0-16.84.96-24.58,2.73-24.21-29.06-78.1-49.29-140.7-49.29s-113.37,19.08-138.52,46.79c-2.41-.15-4.85-.24-7.32-.24-43.93,0-79.54,25.1-79.54,56.06s35.61,56.06,79.54,56.06c17.49,0,33.67-3.98,46.8-10.73,26.8,12.18,61.34,19.52,99.04,19.52,42.88,0,81.66-9.49,109.63-24.81,14.35,9.9,33.99,16.01,55.65,16.01,43.93,0,79.54-25.1,79.54-56.06s-35.61-56.06-79.54-56.06Z"/>
      <path class="cls-44" d="M2671.29,217.75c-8.58,0-16.84.96-24.58,2.73-24.21-29.06-78.1-49.29-140.7-49.29s-113.37,19.08-138.52,46.79c-2.41-.16-4.85-.24-7.32-.24-43.93,0-79.54,25.1-79.54,56.06s35.61,56.06,79.54,56.06c17.49,0,33.67-3.98,46.8-10.73,26.8,12.18,61.34,19.52,99.04,19.52,42.88,0,81.66-9.49,109.63-24.81,14.35,9.9,33.99,16.01,55.65,16.01,43.93,0,79.54-25.1,79.54-56.06s-35.61-56.06-79.54-56.06Z"/>
    </g>
  </g>
</svg>